<?xml version="1.0" encoding="utf-8"?>
<!-- Generator: Adobe Illustrator 16.0.0, SVG Export Plug-In . SVG Version: 6.00 Build 0)  -->
<!DOCTYPE svg PUBLIC "-//W3C//DTD SVG 1.1//EN" "http://www.w3.org/Graphics/SVG/1.1/DTD/svg11.dtd">
<svg version="1.1" id="Admin_Crown_Icon" xmlns="http://www.w3.org/2000/svg" xmlns:xlink="http://www.w3.org/1999/xlink" x="0px"
	 y="0px" width="20px" height="20px" viewBox="0 0 20 20" enable-background="new 0 0 20 20" xml:space="preserve">
<path fill="#3E3F5E" d="M18.027,13.003c0.123-0.714,0.459-2.58,0.92-4.547l0.879-3.751l-3.574,1.44
	c-0.169,0.068-1.111,0.452-2.161,0.96c-0.579-1.403-1.45-3.149-2.598-4.436L10,0.994L8.507,2.669
	C7.359,3.957,6.488,5.703,5.909,7.105C4.86,6.597,3.917,6.213,3.748,6.145l-3.574-1.44l0.879,3.751
	c0.461,1.967,0.796,3.833,0.919,4.547C0.881,13.02,0,13.904,0,15v2c0,1.104,0.896,2,2,2h16c1.104,0,2-0.896,2-2v-2
	C20,13.904,19.119,13.02,18.027,13.003z M7,10c0,0,1.118-3.889,3-6c1.882,2.111,3,6,3,6c1.322-0.921,4-2,4-2c-0.605,2.588-1,5-1,5
	h-6H4c0,0-0.394-2.412-1-5C3,8,5.678,9.079,7,10z M18,17H2v-2h0.3H4h6h6h1.7H18V17z"/>
</svg>
