<?xml version="1.0" encoding="utf-8"?>
<!-- Generator: Adobe Illustrator 16.0.0, SVG Export Plug-In . SVG Version: 6.00 Build 0)  -->
<!DOCTYPE svg PUBLIC "-//W3C//DTD SVG 1.1//EN" "http://www.w3.org/Graphics/SVG/1.1/DTD/svg11.dtd">
<svg version="1.1" id="Alert_Icon" xmlns="http://www.w3.org/2000/svg" xmlns:xlink="http://www.w3.org/1999/xlink" x="0px" y="0px"
	 width="20px" height="20px" viewBox="0 0 20 20" enable-background="new 0 0 20 20" xml:space="preserve">
<g>
	<g>
		<path fill="#3E3F5E" d="M9,10.999h2V5H9V10.999z M9,14.999h2v-2H9V14.999z M16,0H4C1.791,0,0,1.791,0,4v12.001
			C0,18.209,1.791,20,4,20h12c2.209,0,4-1.791,4-3.999V4C20,1.791,18.209,0,16,0z M18,16.001C18,17.104,17.104,18,16,18H4
			c-1.103,0-2-0.896-2-1.999V4c0-1.103,0.897-2,2-2h12c1.104,0,2,0.898,2,2V16.001z"/>
	</g>
</g>
</svg>
