<?xml version="1.0" encoding="utf-8"?>
<!-- Generator: Adobe Illustrator 16.0.0, SVG Export Plug-In . SVG Version: 6.00 Build 0)  -->
<!DOCTYPE svg PUBLIC "-//W3C//DTD SVG 1.1//EN" "http://www.w3.org/Graphics/SVG/1.1/DTD/svg11.dtd">
<svg version="1.1" id="Credits_Icon" xmlns="http://www.w3.org/2000/svg" xmlns:xlink="http://www.w3.org/1999/xlink" x="0px"
	 y="0px" width="20px" height="20px" viewBox="0 0 20 20" enable-background="new 0 0 20 20" xml:space="preserve">
<path fill="#3E3F5E" d="M15.614,2l2.104,5.613L10,16.876L2.281,7.613L4.386,2H15.614 M17,0H3L0,8l10,12L20,8L17,0L17,0z"/>
<path fill="#3E3F5E" d="M14,8l-2.729,10h-0.545H9.272H8.728L6,8H1V6h5l1-4h2L8,6h4l-1-4h2l1,4h5v2H14z M8,8l2,7.333L12,8H8z"/>
</svg>
