<?xml version="1.0" encoding="utf-8"?>
<!-- Generator: Adobe Illustrator 16.0.0, SVG Export Plug-In . SVG Version: 6.00 Build 0)  -->
<!DOCTYPE svg PUBLIC "-//W3C//DTD SVG 1.1//EN" "http://www.w3.org/Graphics/SVG/1.1/DTD/svg11.dtd">
<svg version="1.1" id="Error_Box_Icon" xmlns="http://www.w3.org/2000/svg" xmlns:xlink="http://www.w3.org/1999/xlink" x="0px"
	 y="0px" width="20px" height="20px" viewBox="0 0 20 20" enable-background="new 0 0 20 20" xml:space="preserve">
<path fill="#3F3F5E" d="M16,20H4c-2.209,0-4-1.791-4-4V4c0-2.208,1.791-4,4-4h12c2.209,0,4,1.791,4,4v12C20,18.209,18.209,20,16,20z
	 M18,4c0-1.103-0.896-2-2-2H4C2.897,2,2,2.897,2,4v12c0,1.104,0.897,2.001,2,2.001h12c1.104,0,2-0.897,2-2.001V4z M12.402,14.006
	L10,11.604l-2.403,2.402l-1.602-1.604l2.403-2.401L5.995,7.598l1.602-1.602L10,8.399l2.402-2.403l1.603,1.602l-2.403,2.403
	l2.403,2.401L12.402,14.006z"/>
</svg>
