<?xml version="1.0" encoding="utf-8"?>
<!-- Generator: Adobe Illustrator 16.0.0, SVG Export Plug-In . SVG Version: 6.00 Build 0)  -->
<!DOCTYPE svg PUBLIC "-//W3C//DTD SVG 1.1//EN" "http://www.w3.org/Graphics/SVG/1.1/DTD/svg11.dtd">
<svg version="1.1" id="Fav_Heart_Icon" xmlns="http://www.w3.org/2000/svg" xmlns:xlink="http://www.w3.org/1999/xlink" x="0px"
	 y="0px" width="20px" height="20px" viewBox="0 0 20 20" enable-background="new 0 0 20 20" xml:space="preserve">
<path fill="#FFFFFF" d="M10,19c-0.269,0-0.526-0.108-0.714-0.3L1.67,10.942c-2.227-2.269-2.227-5.96,0-8.229
	C2.754,1.608,4.198,1,5.735,1C7.272,1,8.716,1.608,9.8,2.714L10,2.917l0.199-0.203l0,0c0.005-0.005,0.01-0.01,0.015-0.015
	C11.297,1.604,12.735,1,14.265,1c1.531,0,2.971,0.604,4.055,1.703c0.004,0.004,0.009,0.009,0.013,0.014V2.716
	c2.225,2.269,2.224,5.959-0.002,8.227L10.714,18.7C10.525,18.892,10.268,19,10,19z M5.735,3C4.74,3,3.804,3.396,3.098,4.115
	c-1.468,1.496-1.468,3.93,0,5.427L10,16.572l6.902-7.03c1.464-1.491,1.47-3.913,0.017-5.41c-0.006-0.006-0.011-0.012-0.017-0.017
	c-1.409-1.437-3.859-1.439-5.271-0.002c-0.007,0.007-0.013,0.013-0.02,0.02l-0.896,0.912c-0.189,0.191-0.446,0.3-0.714,0.3l0,0
	c-0.269,0-0.526-0.108-0.714-0.3l-0.913-0.93C7.667,3.396,6.73,3,5.735,3z"/>
</svg>
