<?xml version="1.0" encoding="utf-8"?>
<!-- Generator: Adobe Illustrator 16.0.0, SVG Export Plug-In . SVG Version: 6.00 Build 0)  -->
<!DOCTYPE svg PUBLIC "-//W3C//DTD SVG 1.1//EN" "http://www.w3.org/Graphics/SVG/1.1/DTD/svg11.dtd">
<svg version="1.1" id="Gallery_Icon" xmlns="http://www.w3.org/2000/svg" xmlns:xlink="http://www.w3.org/1999/xlink" x="0px"
	 y="0px" width="20px" height="20px" viewBox="0 0 20 20" enable-background="new 0 0 20 20" xml:space="preserve">
<g>
	<g>
		<path fill="#3E3F5E" d="M18,3h-2c0-1.104-0.896-2-2-2H6C4.896,1,4,1.896,4,3H2C0.896,3,0,3.896,0,5v10c0,1.104,0.896,2,2,2h2
			c0,1.104,0.896,2,2,2h8c1.104,0,2-0.896,2-2h2c1.104,0,2-0.896,2-2V5C20,3.896,19.104,3,18,3z M4,15H2V5h2V15z M14,17H6V3h8V17z
			 M18,15h-2V5h2V15z"/>
	</g>
</g>
</svg>
