<?xml version="1.0" encoding="utf-8"?>
<!-- Generator: Adobe Illustrator 16.0.0, SVG Export Plug-In . SVG Version: 6.00 Build 0)  -->
<!DOCTYPE svg PUBLIC "-//W3C//DTD SVG 1.1//EN" "http://www.w3.org/Graphics/SVG/1.1/DTD/svg11.dtd">
<svg version="1.1" id="GIF_Icon" xmlns="http://www.w3.org/2000/svg" xmlns:xlink="http://www.w3.org/1999/xlink" x="0px" y="0px"
	 width="20px" height="20px" viewBox="0 0 20 20" enable-background="new 0 0 20 20" xml:space="preserve">
<g>
	<g>
		<path fill="#3E3F5E" d="M3.676,5.098L2.243,3.665C1.025,5.153,0.201,6.975,0,8.995h2.053C2.237,7.534,2.822,6.206,3.676,5.098z
			 M8.995,2.028V0C6.974,0.201,5.152,1.025,3.664,2.243l1.429,1.428C6.199,2.807,7.527,2.212,8.995,2.028z M16.336,2.243
			C14.848,1.025,13.025,0.201,11.006,0v2.028c1.469,0.184,2.795,0.778,3.902,1.643L16.336,2.243z M17.947,8.995H20
			c-0.201-2.021-1.025-3.842-2.242-5.33l-1.435,1.433C17.18,6.206,17.764,7.534,17.947,8.995z M2.053,11.005H0
			c0.201,2.021,1.025,3.843,2.243,5.33L3.676,14.9C2.822,13.793,2.237,12.466,2.053,11.005z M11.006,17.971V20
			c2.02-0.2,3.842-1.025,5.33-2.243l-1.428-1.428C13.801,17.193,12.475,17.787,11.006,17.971z M3.664,17.757
			C5.152,18.975,6.974,19.8,8.995,20v-2.029c-1.468-0.184-2.796-0.777-3.902-1.642L3.664,17.757z M16.323,14.9l1.435,1.435
			c1.217-1.487,2.041-3.31,2.242-5.33h-2.053C17.764,12.466,17.18,13.793,16.323,14.9z M15.025,11.005v-2.01H10v2.01h2.831
			c-0.416,1.168-1.521,2.011-2.831,2.011c-1.666,0-3.016-1.351-3.016-3.017c0-1.665,1.35-3.015,3.016-3.015h3.998
			C13.08,5.771,11.641,4.974,10,4.974c-2.776,0-5.026,2.25-5.026,5.025c0,2.774,2.25,5.024,5.026,5.024
			C12.432,15.023,14.561,13.298,15.025,11.005z"/>
	</g>
</g>
</svg>
