<?xml version="1.0" encoding="utf-8"?>
<!-- Generator: Adobe Illustrator 16.0.0, SVG Export Plug-In . SVG Version: 6.00 Build 0)  -->
<!DOCTYPE svg PUBLIC "-//W3C//DTD SVG 1.1//EN" "http://www.w3.org/Graphics/SVG/1.1/DTD/svg11.dtd">
<svg version="1.1" id="Headphones_Icon" xmlns="http://www.w3.org/2000/svg" xmlns:xlink="http://www.w3.org/1999/xlink" x="0px"
	 y="0px" width="20px" height="20px" viewBox="0 0 20 20" enable-background="new 0 0 20 20" xml:space="preserve">
<path fill-rule="evenodd" clip-rule="evenodd" fill="#3E3F5E" d="M17,20h-1.001c-1.652,0-2.997-1.344-2.997-2.998v-2.999
	c0-1.653,1.345-2.999,2.997-2.999H18V10c0-4.415-3.589-8.006-8-8.006S2,5.585,2,10v1.004h1.999C5.653,11.004,7,12.35,7,14.003v2.999
	C7,18.656,5.653,20,3.999,20H3c-1.654,0-3-1.344-3-2.998v-1V12v-2C0,4.486,4.485,0,10,0c5.514,0,10,4.486,10,10v2v4.002v1
	C20,18.656,18.654,20,17,20z M2,17.002c0,0.554,0.448,1.004,1,1.004h0.999c0.552,0,1.001-0.45,1.001-1.004v-2.999
	c0-0.555-0.449-1.005-1.001-1.005H2v3.004V17.002z M15.999,12.998c-0.55,0-0.997,0.45-0.997,1.005v2.999
	c0,0.554,0.447,1.004,0.997,1.004H17c0.552,0,1-0.45,1-1.004v-1v-3.004H15.999z"/>
</svg>
