<?xml version="1.0" encoding="utf-8"?>
<!-- Generator: Adobe Illustrator 16.0.0, SVG Export Plug-In . SVG Version: 6.00 Build 0)  -->
<!DOCTYPE svg PUBLIC "-//W3C//DTD SVG 1.1//EN" "http://www.w3.org/Graphics/SVG/1.1/DTD/svg11.dtd">
<svg version="1.1" id="Kick_and_Ban_Icon" xmlns="http://www.w3.org/2000/svg" xmlns:xlink="http://www.w3.org/1999/xlink" x="0px"
	 y="0px" width="20px" height="20px" viewBox="0 0 20 20" enable-background="new 0 0 20 20" xml:space="preserve">
<path fill="#3E3F5E" d="M17.07,2.929C15.118,0.976,12.559,0,10,0C7.44,0,4.881,0.977,2.929,2.929
	c-3.905,3.906-3.905,10.236,0,14.143C4.881,19.023,7.44,20,10,20c2.559,0,5.118-0.977,7.07-2.93
	C20.977,13.166,20.977,6.834,17.07,2.929z M4.343,4.343C5.854,2.832,7.863,2,10,2c1.799,0,3.504,0.596,4.9,1.685L3.685,14.9
	C1.249,11.766,1.464,7.222,4.343,4.343z M15.657,15.657C14.146,17.168,12.137,18,10,18c-1.799,0-3.504-0.598-4.901-1.686
	L16.314,5.099C18.75,8.235,18.535,12.777,15.657,15.657z"/>
</svg>
