<?xml version="1.0" encoding="utf-8"?>
<!-- Generator: Adobe Illustrator 16.0.0, SVG Export Plug-In . SVG Version: 6.00 Build 0)  -->
<!DOCTYPE svg PUBLIC "-//W3C//DTD SVG 1.1//EN" "http://www.w3.org/Graphics/SVG/1.1/DTD/svg11.dtd">
<svg version="1.1" id="Link_Icon" xmlns="http://www.w3.org/2000/svg" xmlns:xlink="http://www.w3.org/1999/xlink" x="0px" y="0px"
	 width="20px" height="20px" viewBox="0 0 20 20" enable-background="new 0 0 20 20" xml:space="preserve">
<path fill="#3E3F5E" d="M8.889,13.939c0.19,0.696,0.022,1.472-0.522,2.018l-1.432,1.439C6.547,17.785,6.032,18,5.485,18
	c-0.547,0-1.061-0.215-1.448-0.604l-1.433-1.439c-0.806-0.809-0.806-2.125,0-2.936l1.433-1.438c0.388-0.391,0.901-0.604,1.448-0.604
	c0.209,0,0.41,0.041,0.604,0.102l1.498-1.499C6.943,9.188,6.216,8.98,5.485,8.98c-1.037,0-2.074,0.397-2.865,1.192l-1.433,1.439
	c-1.583,1.59-1.583,4.168,0,5.757l1.433,1.438C3.411,19.604,4.448,20,5.485,20c1.037,0,2.074-0.396,2.866-1.191l1.433-1.439
	c1.336-1.34,1.53-3.377,0.614-4.938L8.889,13.939z"/>
<path fill="#3E3F5E" d="M18.813,2.631L17.38,1.192C16.588,0.397,15.551,0,14.514,0s-2.074,0.397-2.865,1.192l-1.433,1.439
	c-1.334,1.341-1.53,3.378-0.614,4.938l1.509-1.51c-0.189-0.696-0.021-1.472,0.521-2.018l1.434-1.439C13.453,2.214,13.967,2,14.514,2
	s1.063,0.214,1.449,0.603l1.434,1.439c0.806,0.81,0.807,2.125-0.002,2.935l-1.432,1.439c-0.388,0.39-0.902,0.604-1.449,0.604
	c-0.209,0-0.41-0.041-0.604-0.101l-1.498,1.498c0.645,0.396,1.371,0.603,2.102,0.603c1.037,0,2.074-0.396,2.866-1.191l1.433-1.439
	C20.396,6.799,20.396,4.221,18.813,2.631z"/>
<path fill="#3E3F5E" d="M7.171,14.242c-0.391,0.392-1.023,0.391-1.414,0l0,0c-0.391-0.391-0.391-1.023,0-1.414l7.071-7.071
	c0.391-0.391,1.023-0.391,1.414,0l0,0c0.391,0.391,0.391,1.024,0,1.414L7.171,14.242z"/>
</svg>
