<?xml version="1.0" encoding="utf-8"?>
<!-- Generator: Adobe Illustrator 16.0.0, SVG Export Plug-In . SVG Version: 6.00 Build 0)  -->
<!DOCTYPE svg PUBLIC "-//W3C//DTD SVG 1.1//EN" "http://www.w3.org/Graphics/SVG/1.1/DTD/svg11.dtd">
<svg version="1.1" id="Manage_Group_Icon" xmlns="http://www.w3.org/2000/svg" xmlns:xlink="http://www.w3.org/1999/xlink" x="0px"
	 y="0px" width="20px" height="20px" viewBox="0 0 20 20" enable-background="new 0 0 20 20" xml:space="preserve">
<g>
	<path fill="#3E3F5E" d="M4,2V1c0-0.552-0.448-1-1-1S2,0.448,2,1v1C0.896,2,0,2.896,0,4v2c0,1.104,0.896,2,2,2v11
		c0,0.553,0.448,1,1,1s1-0.447,1-1V8c1.104,0,2-0.896,2-2V4C6,2.896,5.104,2,4,2z M4,6H2V4h2V6z"/>
	<path fill="#3E3F5E" d="M11,7V1c0-0.552-0.448-1-1-1S9,0.448,9,1v6C7.896,7,7,7.896,7,9v2c0,1.104,0.896,2,2,2v6
		c0,0.553,0.448,1,1,1s1-0.447,1-1v-6c1.104,0,2-0.896,2-2V9C13,7.896,12.104,7,11,7z M11,11H9V9h2V11z"/>
	<path fill="#3E3F5E" d="M18,12V1c0-0.552-0.447-1-1-1s-1,0.448-1,1v11c-1.104,0-2,0.896-2,2v2c0,1.104,0.896,2,2,2v1
		c0,0.553,0.447,1,1,1s1-0.447,1-1v-1c1.104,0,2-0.896,2-2v-2C20,12.896,19.104,12,18,12z M18,16h-2v-2h2V16z"/>
</g>
</svg>
