<?xml version="1.0" encoding="utf-8"?>
<!-- Generator: Adobe Illustrator 16.0.0, SVG Export Plug-In . SVG Version: 6.00 Build 0)  -->
<!DOCTYPE svg PUBLIC "-//W3C//DTD SVG 1.1//EN" "http://www.w3.org/Graphics/SVG/1.1/DTD/svg11.dtd">
<svg version="1.1" id="Mod_Shield_Icon" xmlns="http://www.w3.org/2000/svg" xmlns:xlink="http://www.w3.org/1999/xlink" x="0px"
	 y="0px" width="20px" height="20px" viewBox="0 0 20 20" enable-background="new 0 0 20 20" xml:space="preserve">
<path fill="#3E3F5E" d="M17.26,3.217c-0.013-0.002-2.703-0.418-6.096-2.844L10.643,0H9.358L8.836,0.373
	C5.431,2.809,2.766,3.214,2.74,3.217L1,3.445V5.2V11.6v0.185l0.033,0.18c1.12,6.058,8.178,7.901,8.478,7.978L9.752,20h0.496
	l0.241-0.061c0.3-0.075,7.358-1.92,8.478-7.978L19,11.783V11.6V5.2V3.445L17.26,3.217z M17,11.6c-0.898,4.863-7,6.4-7,6.4
	s-6.101-1.537-7-6.4V5.2c0,0,3.092-0.405,7-3.2c3.907,2.795,7,3.2,7,3.2V11.6z"/>
</svg>
