<?xml version="1.0" encoding="utf-8"?>
<!-- Generator: Adobe Illustrator 16.0.0, SVG Export Plug-In . SVG Version: 6.00 Build 0)  -->
<!DOCTYPE svg PUBLIC "-//W3C//DTD SVG 1.1//EN" "http://www.w3.org/Graphics/SVG/1.1/DTD/svg11.dtd">
<svg version="1.1" id="Photos_Icon" xmlns="http://www.w3.org/2000/svg" xmlns:xlink="http://www.w3.org/1999/xlink" x="0px"
	 y="0px" width="20px" height="20px" viewBox="0 0 20 20" enable-background="new 0 0 20 20" xml:space="preserve">
<g>
	<path fill="#3E3F5E" d="M16,0H4C1.791,0,0,1.791,0,4v12c0,2.209,1.791,4,4,4h12c2.209,0,4-1.791,4-4V4C20,1.791,18.209,0,16,0z
		 M4,2h12c1.104,0,2,0.897,2,2v6.407L16.703,9.11c-0.75-0.751-1.734-1.126-2.719-1.126c-0.983,0-1.967,0.375-2.719,1.126
		l-2.979,2.98l-0.259-0.259c-0.563-0.563-1.301-0.845-2.039-0.845c-0.738,0-1.476,0.283-2.04,0.845L2,13.782V4C2,2.897,2.897,2,4,2z
		 M16,18H4c-0.918,0-1.686-0.625-1.919-1.471l3.282-3.282c0.226-0.226,0.489-0.259,0.626-0.259c0.137,0,0.399,0.033,0.625,0.258
		l0.259,0.259l1.414,1.414L9.7,13.505l2.981-2.981c0.348-0.348,0.811-0.54,1.303-0.54s0.955,0.192,1.305,0.542L18,13.234V16
		C18,17.104,17.104,18,16,18z"/>
	<path fill="#3E3F5E" d="M6,9c1.657,0,3-1.344,3-3c0-1.657-1.343-3-3-3S3,4.343,3,6C3,7.656,4.343,9,6,9z M6,5c0.551,0,1,0.449,1,1
		c0,0.552-0.449,1-1,1S5,6.552,5,6C5,5.449,5.449,5,6,5z"/>
</g>
</svg>
