<?xml version="1.0" encoding="utf-8"?>
<!-- Generator: Adobe Illustrator 16.0.0, SVG Export Plug-In . SVG Version: 6.00 Build 0)  -->
<!DOCTYPE svg PUBLIC "-//W3C//DTD SVG 1.1//EN" "http://www.w3.org/Graphics/SVG/1.1/DTD/svg11.dtd">
<svg version="1.1" id="Poll_Icon" xmlns="http://www.w3.org/2000/svg" xmlns:xlink="http://www.w3.org/1999/xlink" x="0px" y="0px"
	 width="20px" height="20px" viewBox="0 0 20 20" enable-background="new 0 0 20 20" xml:space="preserve">
<g>
	<g>
		<path fill="#3E3F5E" d="M12,14H2c-1.104,0-2,0.896-2,2v2c0,1.104,0.896,2,2,2h10c1.105,0,2-0.896,2-2v-2
			C14,14.896,13.105,14,12,14z M12,18H2v-2h10V18z M18,7H2C0.896,7,0,7.896,0,9v2c0,1.104,0.896,2,2,2h16c1.104,0,2-0.896,2-2V9
			C20,7.896,19.104,7,18,7z M18,11H2V9h16V11z M2,6h4c1.105,0,2-0.896,2-2V2c0-1.104-0.895-2-2-2H2C0.896,0,0,0.896,0,2v2
			C0,5.104,0.896,6,2,6z M2,2h4v2H2V2z"/>
	</g>
</g>
</svg>
