<?xml version="1.0" encoding="utf-8"?>
<!-- Generator: Adobe Illustrator 16.0.0, SVG Export Plug-In . SVG Version: 6.00 Build 0)  -->
<!DOCTYPE svg PUBLIC "-//W3C//DTD SVG 1.1//EN" "http://www.w3.org/Graphics/SVG/1.1/DTD/svg11.dtd">
<svg version="1.1" id="Quests_Icon" xmlns="http://www.w3.org/2000/svg" xmlns:xlink="http://www.w3.org/1999/xlink" x="0px"
	 y="0px" width="20px" height="20px" viewBox="0 0 20 20" enable-background="new 0 0 20 20" xml:space="preserve">
<path fill="#3E3F5E" d="M10,2.708l1.773,3.813l0.453,0.97l1.058,0.163l4.138,0.637l-3.07,3.175l-0.697,0.722l0.16,0.988l0.701,4.326
	l-3.494-1.947l-0.965-0.537L10,15.048l-0.055-0.03L8.98,15.557l-3.494,1.946l0.7-4.326l0.16-0.989l-0.697-0.721L2.578,8.292
	l4.138-0.637l1.058-0.163l0.451-0.97L10,2.708 M10.029-0.004C10.019-0.004,10.01-0.002,10,0C9.99-0.002,9.981-0.004,9.971-0.004
	c-0.558,0-1.066,0.326-1.303,0.834L6.412,5.678L1.223,6.477c-0.534,0.082-0.977,0.46-1.148,0.976
	C-0.097,7.97,0.033,8.539,0.409,8.927l3.802,3.933l-0.882,5.453c-0.089,0.547,0.141,1.1,0.591,1.42
	c0.248,0.176,0.539,0.266,0.83,0.266c0.24,0,0.479-0.061,0.697-0.182l4.507-2.512L10,17.328l0.046-0.025l4.506,2.512
	c0.22,0.121,0.457,0.183,0.697,0.183c0.291,0,0.582-0.09,0.83-0.267c0.45-0.319,0.68-0.871,0.591-1.42l-0.882-5.453l3.802-3.932
	c0.376-0.387,0.508-0.957,0.335-1.474c-0.172-0.515-0.614-0.894-1.147-0.976l-5.189-0.798L11.332,0.83
	C11.096,0.322,10.586-0.004,10.029-0.004L10.029-0.004z"/>
<rect x="7" y="9" fill="#3E3F5E" width="2" height="2"/>
<rect x="11" y="9" fill="#3E3F5E" width="2" height="2"/>
</svg>
