<?xml version="1.0" encoding="utf-8"?>
<!-- Generator: Adobe Illustrator 16.0.0, SVG Export Plug-In . SVG Version: 6.00 Build 0)  -->
<!DOCTYPE svg PUBLIC "-//W3C//DTD SVG 1.1//EN" "http://www.w3.org/Graphics/SVG/1.1/DTD/svg11.dtd">
<svg version="1.1" id="Rank_Icon" xmlns="http://www.w3.org/2000/svg" xmlns:xlink="http://www.w3.org/1999/xlink" x="0px" y="0px"
	 width="20px" height="20px" viewBox="0 0 20 20" enable-background="new 0 0 20 20" xml:space="preserve">
<g>
	<path fill="#3E3F5E" d="M1,0v8v2v2v4l9,4l9-4v-4v-2V8V0H1z M3,2h14v4.7l-7,3.111L3,6.7V2z M17,14.7l-7,3.11L3,14.7v-1.622
		l6.188,2.749L10,16.188l0.813-0.36L17,13.078V14.7z M17,10.889L10,14l-7-3.111v-2L10,12l7-3.111V10.889z"/>
	<rect x="7" y="4" fill="#3E3F5E" width="6" height="2"/>
</g>
</svg>
