<?xml version="1.0" encoding="utf-8"?>
<!-- Generator: Adobe Illustrator 16.0.0, SVG Export Plug-In . SVG Version: 6.00 Build 0)  -->
<!DOCTYPE svg PUBLIC "-//W3C//DTD SVG 1.1//EN" "http://www.w3.org/Graphics/SVG/1.1/DTD/svg11.dtd">
<svg version="1.1" id="Remove_Friend_Icon" xmlns="http://www.w3.org/2000/svg" xmlns:xlink="http://www.w3.org/1999/xlink" x="0px"
	 y="0px" width="20px" height="20px" viewBox="0 0 20 20" enable-background="new 0 0 20 20" xml:space="preserve">
<g>
	<g>
		<path fill="#3E3F5E" d="M10,13c-1.305,0-2.403-0.838-2.816-2H5.101c0.464,2.282,2.48,4,4.899,4s4.436-1.718,4.898-4h-2.082
			C12.402,12.162,11.305,13,10,13z M7,7H5v2h2V7z M13,7v2h2V7H13z"/>
	</g>
</g>
<path fill="#3E3F5E" d="M17.738,8C17.902,8.64,18,9.308,18,10c0,4.418-3.582,8-8,8s-8-3.582-8-8s3.582-8,8-8
	c0.691,0,1.359,0.097,2,0.262V0.201C11.354,0.07,10.686,0,10,0C4.477,0,0,4.478,0,10c0,5.523,4.477,10,10,10c5.521,0,10-4.477,10-10
	c0-0.685-0.068-1.354-0.201-2H17.738z"/>
<rect x="14" y="2" fill="#3E3F5E" width="6" height="2"/>
</svg>
