<?xml version="1.0" encoding="utf-8"?>
<!-- Generator: Adobe Illustrator 16.0.0, SVG Export Plug-In . SVG Version: 6.00 Build 0)  -->
<!DOCTYPE svg PUBLIC "-//W3C//DTD SVG 1.1//EN" "http://www.w3.org/Graphics/SVG/1.1/DTD/svg11.dtd">
<svg version="1.1" id="Search_Icon" xmlns="http://www.w3.org/2000/svg" xmlns:xlink="http://www.w3.org/1999/xlink" x="0px"
	 y="0px" width="20px" height="20px" viewBox="0 0 20 20" enable-background="new 0 0 20 20" xml:space="preserve">
<path fill="#3E3F5E" d="M8,2c3.309,0,6,2.691,6,6c0,3.309-2.691,6-6,6c-3.309,0-6-2.691-6-6C2,4.691,4.691,2,8,2 M8,0
	C3.582,0,0,3.582,0,8s3.582,8,8,8s8-3.582,8-8S12.418,0,8,0L8,0z"/>
<path fill="#3E3F5E" d="M19.171,15.168l-3.134-3.134c-0.309,0.612-0.68,1.19-1.113,1.714l2.833,2.834
	c0.323,0.324,0.323,0.852,0,1.175C17.545,17.969,17.298,18,17.17,18c-0.129,0-0.376-0.031-0.588-0.243l-2.834-2.833
	c-0.523,0.436-1.102,0.805-1.714,1.113l3.134,3.134C15.721,19.725,16.445,20,17.169,20c0.726,0,1.449-0.275,2.002-0.829
	C20.275,18.064,20.275,16.273,19.171,15.168z"/>
</svg>
