<?xml version="1.0" encoding="utf-8"?>
<!-- Generator: Adobe Illustrator 16.0.0, SVG Export Plug-In . SVG Version: 6.00 Build 0)  -->
<!DOCTYPE svg PUBLIC "-//W3C//DTD SVG 1.1//EN" "http://www.w3.org/Graphics/SVG/1.1/DTD/svg11.dtd">
<svg version="1.1" id="Send_Invites_Icon" xmlns="http://www.w3.org/2000/svg" xmlns:xlink="http://www.w3.org/1999/xlink" x="0px"
	 y="0px" width="20px" height="20px" viewBox="0 0 20 20" enable-background="new 0 0 20 20" xml:space="preserve">
<g>
	<path fill="#3E3F5E" d="M16,4V2c0-1.104-0.896-2-2-2L4,2C2.896,2,2,2.896,2,4v2v12c0,1.104,0.896,2,2,2h12c1.104,0,2-0.896,2-2V6
		C18,4.896,17.104,4,16,4z M4.392,3.961L14,2.04V4H4.198L4.392,3.961z M16,18H4V6h10h2V18z"/>
	<polygon fill="#3E3F5E" points="11,9 9,9 9,11 7,11 7,13 9,13 9,15 11,15 11,13 13,13 13,11 11,11 	"/>
</g>
</svg>
